<svg fill="#000000" xmlns="http://www.w3.org/2000/svg"  viewBox="0 0 50 50" width="50px" height="50px"><path d="M 1 12 L 1 36 L 26 36 L 50 12 Z M 3 14 L 45.199219 14 L 25.199219 34 L 3 34 Z M 8.398438 18 C 5 18 4 20.101563 4 21.402344 C 4 22.699219 4.699219 24.199219 6.601563 24.800781 C 8.601563 25.402344 10.097656 25.5 10.097656 26.5 C 10.097656 27.5 6.699219 27.699219 4.800781 26.5 L 4 29.097656 C 4 29.097656 5.101563 30 8.398438 30 C 10.183594 30 11.566406 29.496094 12.480469 28.773438 L 12 30 L 15.5 30 L 16.097656 28.199219 C 16.800781 28.5 17.601563 28.699219 18.5 28.699219 C 19.398438 28.699219 20.199219 28.5 20.902344 28.199219 L 21.5 30 L 27 30 L 27 27 L 28.5 27 C 31 27 33 25 33 22.5 C 33 20 31 18 28.5 18 L 24 18 L 24 27.5 L 20.199219 18 L 16.699219 18 L 13.613281 25.875 C 13.207031 24.128906 11.351563 23.464844 10.199219 23.199219 C 7.199219 22.398438 7 22 7 21.402344 C 7 19.902344 11 20.601563 12 21 C 12.300781 20.199219 12.902344 18.699219 12.902344 18.699219 C 12.902344 18.699219 11.800781 18 8.398438 18 Z M 27 21 L 28.5 21 C 29.300781 21 30 21.699219 30 22.5 C 30 23.300781 29.300781 24 28.5 24 L 27 24 Z M 18.5 21.402344 L 20 25.699219 C 19.601563 26 19.101563 26.097656 18.5 26.097656 C 17.898438 26.097656 17.398438 26 17 25.699219 Z"/></svg>