<?xml version="1.0" encoding="utf-8"?>
<!-- Generator: Adobe Illustrator 23.0.4, SVG Export Plug-In . SVG Version: 6.00 Build 0)  -->
<!DOCTYPE svg PUBLIC "-//W3C//DTD SVG 1.1//EN" "http://www.w3.org/Graphics/SVG/1.1/DTD/svg11.dtd" [
	<!ENTITY ns_extend "http://ns.adobe.com/Extensibility/1.0/">
	<!ENTITY ns_ai "http://ns.adobe.com/AdobeIllustrator/10.0/">
	<!ENTITY ns_graphs "http://ns.adobe.com/Graphs/1.0/">
	<!ENTITY ns_vars "http://ns.adobe.com/Variables/1.0/">
	<!ENTITY ns_imrep "http://ns.adobe.com/ImageReplacement/1.0/">
	<!ENTITY ns_sfw "http://ns.adobe.com/SaveForWeb/1.0/">
	<!ENTITY ns_custom "http://ns.adobe.com/GenericCustomNamespace/1.0/">
	<!ENTITY ns_adobe_xpath "http://ns.adobe.com/XPath/1.0/">
]>
<svg version="1.1" id="Слой_1" xmlns:x="&ns_extend;" xmlns:i="&ns_ai;" xmlns:graph="&ns_graphs;"
	 xmlns="http://www.w3.org/2000/svg" xmlns:xlink="http://www.w3.org/1999/xlink" x="0px" y="0px" viewBox="0 0 64.3 64"
	 style="enable-background:new 0 0 64.3 64;" xml:space="preserve">
<style type="text/css">
	.st0{fill:#3A3A3A;}
</style>
<metadata>
	<sfw  xmlns="&ns_sfw;">
		<slices></slices>
		<sliceSourceBounds  bottomLeftOrigin="true" height="63.9" width="47.1" x="-713.7" y="0.1"></sliceSourceBounds>
	</sfw>
</metadata>
<g>
	<path class="st0" d="M20.6,49.4c0,0-2.4,1.4,1.7,1.9c5.1,0.6,7.6,0.5,13.2-0.6c0,0,1.5,0.9,3.5,1.7C26.6,57.8,10.8,52.2,20.6,49.4"
		/>
	<path class="st0" d="M19.1,42.4c0,0-2.7,2,1.4,2.5c5.4,0.6,9.7,0.6,17.1-0.8c0,0,1,1,2.6,1.6C25.1,50.1,8.3,46,19.1,42.4"/>
	<path class="st0" d="M32,30.5c3.1,3.5-0.8,6.7-0.8,6.7s7.8-4,4.2-9.1c-3.4-4.7-5.9-7.1,8-15.1C43.4,13,21.5,18.5,32,30.5"/>
	<path class="st0" d="M48.5,54.6c0,0,1.8,1.5-2,2.6c-7.2,2.2-30,2.8-36.4,0.1c-2.3-1,2-2.4,3.3-2.7c1.4-0.3,2.2-0.2,2.2-0.2
		c-2.5-1.8-16.4,3.5-7,5C34.2,63.6,55.1,57.6,48.5,54.6"/>
	<path class="st0" d="M21.8,35.2c0,0-11.6,2.8-4.1,3.8c3.2,0.4,9.5,0.3,15.4-0.2c4.8-0.4,9.6-1.3,9.6-1.3s-1.7,0.7-2.9,1.6
		c-11.8,3.1-34.6,1.7-28-1.5C17.3,34.9,21.8,35.2,21.8,35.2"/>
	<path class="st0" d="M42.6,46.8c12-6.2,6.4-12.2,2.6-11.4c-0.9,0.2-1.4,0.4-1.4,0.4s0.4-0.6,1-0.8c7.7-2.7,13.5,7.9-2.5,12.1
		C42.4,47.1,42.6,47,42.6,46.8"/>
	<path class="st0" d="M35.4,0c0,0,6.6,6.6-6.3,16.9c-10.4,8.2-2.4,12.9,0,18.2c-6.1-5.5-10.5-10.3-7.5-14.7
		C26,13.7,38.1,10.5,35.4,0"/>
	<path class="st0" d="M23,63.7c11.5,0.7,29.2-0.4,29.6-5.9c0,0-0.8,2.1-9.5,3.7C33.3,63.4,21.1,63.2,14,62C14,62,15.4,63.2,23,63.7"
		/>
</g>
</svg>
