<?xml version="1.0" encoding="UTF-8"?><svg xmlns="http://www.w3.org/2000/svg" xmlns:xlink="http://www.w3.org/1999/xlink" viewBox="0 0 32 32" version="1.1"><path d="M1 9v14h15.39L31.56 9zm2 2h23.441L15.61 21H3zm3.2 2C4.5 13 4 14.05 4 14.7c0 .648.352 1.402 1.3 1.702 1 .297 1.75.348 1.75.848s-1.698.602-2.652 0L4 18.55s.55.45 2.2.45c.89 0 1.585-.25 2.042-.613L8 19h1.75l.3-.902c.352.152.75.25 1.2.25.45 0 .848-.098 1.2-.25l.3.902h2.75v-1.5h.75c1.25 0 2.25-1 2.25-2.25S17.5 13 16.25 13H14v4.75L12.098 13h-1.75l-1.543 3.941c-.2-.875-1.13-1.207-1.703-1.343-1.5-.399-1.602-.598-1.602-.899 0-.75 2-.398 2.5-.199.148-.398.45-1.152.45-1.152S7.897 13 6.2 13zm9.3 1.5h.75c.398 0 .75.352.75.75s-.352.75-.75.75h-.75zm-4.25.2l.75 2.148c-.2.152-.45.203-.75.203s-.55-.051-.75-.203z" id="surface1"/><metadata><rdf:RDF xmlns:rdf="http://www.w3.org/1999/02/22-rdf-syntax-ns#" xmlns:rdfs="http://www.w3.org/2000/01/rdf-schema#" xmlns:dc="http://purl.org/dc/elements/1.1/"><rdf:Description about="https://iconscout.com/legal#licenses" dc:title="sap" dc:description="sap" dc:publisher="Iconscout" dc:date="2017-12-30" dc:format="image/svg+xml" dc:language="en"><dc:creator><rdf:Bag><rdf:li>Icons8</rdf:li></rdf:Bag></dc:creator></rdf:Description></rdf:RDF></metadata></svg>