<?xml version="1.0" standalone="no"?>
<!DOCTYPE svg PUBLIC "-//W3C//DTD SVG 20010904//EN"
 "http://www.w3.org/TR/2001/REC-SVG-20010904/DTD/svg10.dtd">
<svg version="1.0" xmlns="http://www.w3.org/2000/svg"
 viewBox="0 0 1000.000000 1000.000000"
 enable-background="new 0 0 1000 1000" xml:space="preserve">

<g transform="translate(0.000000,980.000000) scale(0.100000,-0.100000)"
fill="#000000" stroke="none">
<path d="M3625 9785 c-22 -7 -121 -39 -220 -70 -896 -283 -1541 -611 -1729
-878 -57 -82 -76 -134 -76 -210 0 -121 63 -204 263 -344 634 -448 990 -1030
1058 -1728 14 -145 6 -428 -16 -570 -97 -619 -381 -1203 -874 -1794 -283 -340
-612 -651 -1054 -995 -576 -448 -849 -780 -949 -1154 -31 -119 -29 -289 6
-407 133 -448 662 -832 1566 -1140 755 -256 1854 -467 2570 -491 246 -9 227
-18 332 166 421 738 720 1518 867 2265 87 441 115 719 115 1165 1 489 -46 877
-145 1211 -16 54 -29 102 -29 107 0 5 24 16 53 25 28 8 174 52 322 96 1115
337 2270 616 3130 756 106 17 164 31 171 41 54 71 -197 409 -506 680 -867 761
-2225 1322 -3776 1562 -128 20 -204 37 -233 51 -181 93 -413 512 -630 1143
-48 140 -126 392 -151 486 -6 23 -14 42 -18 41 -4 0 -25 -7 -47 -14z m101
-348 c113 -310 162 -510 132 -534 -40 -33 -1281 157 -1388 212 -23 12 -19 16
105 78 140 70 463 219 830 383 l229 103 14 -32 c7 -18 42 -112 78 -210z
m-1143 -457 c511 -112 1042 -214 1196 -227 l84 -8 -352 -217 -352 -218 -89 0
-88 0 -218 228 c-236 245 -399 423 -435 473 l-23 32 27 -7 c15 -3 127 -29 250
-56z m-154 -315 c127 -148 227 -271 222 -273 -5 -2 -110 22 -233 52 -337 83
-552 150 -578 181 -27 33 59 130 232 261 83 62 103 73 114 62 7 -7 116 -134
243 -283z m1654 -281 c54 -130 97 -237 95 -239 -2 -1 -122 17 -268 40 -146 23
-318 50 -382 60 -65 10 -118 20 -117 24 0 6 560 351 569 351 3 0 49 -106 103
-236z m-1732 -159 c123 -42 229 -81 235 -88 12 -13 177 -557 171 -563 -2 -2
-35 35 -73 83 -156 199 -326 395 -443 516 -68 70 -122 127 -119 127 3 0 106
-34 229 -75z m896 -160 c285 -42 524 -76 532 -78 8 -1 -167 -138 -389 -305
l-404 -303 -12 58 c-16 78 -90 288 -180 511 -41 101 -74 185 -74 188 0 6 -38
11 527 -71z m703 -195 c77 -152 113 -363 114 -667 1 -116 -2 -214 -5 -218 -4
-3 -89 24 -190 61 -227 82 -611 210 -662 219 -21 4 -36 12 -35 17 3 8 738 647
745 648 2 0 16 -27 33 -60z m760 -75 c333 -69 615 -129 628 -132 19 -5 3 -16
-95 -68 -65 -34 -328 -179 -585 -323 -258 -143 -468 -259 -468 -258 0 1 10 44
21 96 16 70 22 130 22 225 1 190 -37 349 -123 518 -32 62 -37 77 -23 73 10 -3
290 -62 623 -131z m884 -237 c-32 -259 -159 -610 -346 -953 -39 -71 -72 -132
-74 -133 -1 -2 -33 14 -71 36 -202 117 -513 277 -626 322 l-58 23 93 60 c51
33 179 115 283 182 105 67 327 211 494 319 167 108 306 196 308 196 2 0 1 -24
-3 -52z m410 -19 c488 -143 886 -281 1089 -377 107 -50 138 -72 104 -72 -23 0
-569 -167 -817 -250 -343 -115 -624 -223 -861 -333 l-75 -35 78 257 c126 412
218 765 218 837 0 29 6 44 19 44 2 0 113 -32 245 -71z m-2713 -589 c261 -77
564 -204 564 -236 0 -10 -198 -204 -515 -504 l-175 -165 -7 200 c-14 405 -30
618 -54 728 -4 18 -2 27 7 27 7 0 88 -22 180 -50z m4025 5 c-13 -34 -167 -282
-274 -440 -230 -340 -439 -603 -720 -902 l-124 -133 -87 124 c-47 69 -124 173
-171 233 -108 137 -346 376 -427 428 -34 22 -62 42 -63 45 -1 15 1441 538
1723 625 127 39 152 42 143 20z m365 -91 c390 -270 748 -553 939 -744 106
-105 211 -235 198 -244 -1 -1 -113 -12 -248 -25 -591 -54 -1270 -139 -1614
-201 -151 -27 -394 -85 -441 -105 -15 -7 -11 1 14 31 466 553 798 1009 929
1276 31 64 60 117 63 117 4 1 76 -47 160 -105z m-3133 -424 c316 -170 340
-185 320 -197 -13 -6 -228 -124 -478 -261 -250 -138 -456 -249 -457 -248 -1 1
38 125 88 275 99 300 159 520 159 582 0 29 4 40 13 37 7 -2 167 -86 355 -188z
m-613 -56 c-81 -307 -194 -574 -327 -772 l-49 -73 -47 38 c-26 20 -86 70 -134
109 -48 39 -114 91 -147 115 -33 24 -61 47 -61 51 0 8 792 669 797 665 1 -2
-13 -61 -32 -133z m1371 -414 c237 -134 424 -266 554 -392 69 -66 146 -156
139 -162 -2 -2 -227 -75 -499 -161 -543 -172 -1155 -370 -1280 -414 -44 -15
-80 -26 -80 -24 0 3 85 100 188 216 382 430 720 828 803 946 24 34 45 61 47
61 3 0 60 -32 128 -70z m-443 26 c-10 -13 -196 -253 -414 -533 -218 -279 -436
-561 -484 -625 -49 -65 -93 -118 -97 -118 -4 0 -8 10 -8 23 0 41 -59 310 -91
411 -32 104 -60 168 -86 198 -14 15 -3 23 138 94 255 127 718 379 959 522 97
58 109 61 83 28z m-1739 -495 c65 -28 176 -108 176 -126 0 -29 -423 -364 -569
-450 -8 -4 -1 16 16 46 122 215 237 438 268 521 19 52 11 51 109 9z m410 -431
c81 -87 141 -253 134 -372 l-3 -50 -245 -112 c-501 -229 -743 -344 -1038 -491
-167 -84 -297 -146 -290 -140 7 7 159 136 338 286 540 454 824 702 960 840 47
47 88 86 91 87 4 1 27 -21 53 -48z m-324 -64 c-14 -13 -297 -261 -630 -551
-333 -290 -618 -540 -635 -554 -16 -14 -25 -19 -19 -11 52 74 405 534 433 563
75 80 333 275 511 388 89 55 338 188 355 189 5 0 -2 -11 -15 -24z m2004 -193
c26 -154 35 -282 36 -501 l0 -204 -192 100 c-170 87 -488 265 -662 370 -46 28
-55 37 -43 44 15 8 825 286 838 287 3 1 14 -43 23 -96z m-522 -551 c263 -156
476 -288 473 -292 -9 -15 -145 -100 -270 -170 -133 -75 -763 -392 -802 -404
l-21 -7 19 63 c53 170 81 448 83 839 1 274 1 277 21 267 11 -6 235 -139 497
-296z m-758 196 c3 -18 8 -107 12 -198 7 -178 -3 -311 -37 -490 -24 -122 -106
-380 -122 -380 -5 0 -35 19 -66 42 -141 105 -307 293 -416 469 -60 98 -148
269 -141 277 6 5 749 311 757 312 4 0 9 -15 13 -32z m-747 -684 c91 -131 210
-271 355 -415 l126 -126 -61 -36 c-99 -56 -310 -159 -473 -230 -234 -101 -829
-314 -853 -305 -5 2 32 73 81 158 286 491 584 1058 629 1199 l22 69 56 -111
c31 -62 84 -153 118 -203z m-552 174 c-4 -13 -39 -102 -77 -198 -171 -425
-345 -754 -505 -954 l-56 -68 -18 29 c-69 109 -149 519 -149 764 l0 57 391
196 c216 108 398 196 406 196 10 0 12 -6 8 -22z m2630 -272 c15 -271 -27 -606
-111 -901 -19 -65 -36 -121 -38 -122 -2 -2 -57 14 -122 36 -157 51 -333 132
-508 231 -152 87 -397 248 -403 266 -2 6 15 16 37 23 88 26 746 378 1055 564
33 20 65 36 71 37 8 0 14 -44 19 -134z m-3715 -303 c0 -151 55 -402 139 -640
27 -76 56 -155 65 -175 9 -20 12 -39 8 -42 -5 -3 -127 -41 -273 -85 -674 -203
-1158 -327 -1174 -301 -2 3 11 52 30 107 150 448 543 864 1088 1154 51 27 98
49 105 49 8 0 12 -20 12 -67z m2681 -492 c343 -168 558 -263 719 -318 60 -20
109 -38 107 -39 -1 -1 -117 -55 -257 -121 -507 -239 -943 -424 -1173 -499
-108 -35 -248 -67 -256 -59 -3 4 550 1185 555 1185 1 0 138 -67 305 -149z
m-621 80 c0 -5 -23 -89 -51 -186 -75 -262 -176 -529 -281 -739 -67 -136 -181
-326 -195 -326 -20 0 -123 54 -248 128 -222 133 -450 325 -605 507 -42 49 -69
90 -64 94 5 5 61 25 124 46 381 125 1100 386 1230 448 83 39 90 41 90 28z
m1445 -588 c-4 -32 -22 -143 -41 -248 -70 -385 -151 -689 -229 -850 -65 -137
-54 -129 -160 -110 -319 59 -772 173 -996 251 -193 67 -388 170 -363 193 5 5
110 50 234 101 743 305 1403 605 1516 689 21 16 41 30 43 30 2 1 0 -25 -4 -56z
m-3345 -70 c0 -17 -87 -165 -165 -283 -181 -274 -657 -920 -678 -920 -20 1
-182 136 -252 212 -159 172 -253 348 -291 546 -8 41 -14 93 -14 117 l0 44 43
5 c23 3 69 8 102 11 101 10 291 44 480 86 195 43 726 176 734 184 7 8 41 6 41
-2z m485 -302 c163 -130 342 -256 472 -332 51 -30 92 -56 92 -59 1 -3 -392
-148 -871 -323 l-873 -318 -27 32 c-26 31 -27 33 -10 55 9 13 222 286 472 608
l454 584 76 -67 c41 -38 138 -118 215 -180z m390 -1055 c-274 -412 -320 -476
-341 -476 -32 0 -196 35 -304 65 -327 91 -592 220 -793 387 l-29 24 694 187
c381 103 781 211 888 241 107 29 196 52 198 51 2 -2 -139 -217 -313 -479z
m916 359 c363 -118 675 -179 1074 -211 l80 -6 -75 -29 c-426 -165 -1265 -451
-1622 -553 -249 -71 -511 -129 -563 -124 l-34 3 50 60 c255 306 654 819 719
926 l34 55 86 -33 c47 -19 160 -58 251 -88z m1209 -350 c0 -13 -184 -492 -228
-596 -60 -139 -113 -246 -139 -278 l-19 -24 -200 22 c-571 63 -1040 150 -1285
240 -138 51 -139 54 -12 80 553 114 1364 353 1763 520 92 38 120 47 120 36z"/>
</g>
</svg>
