<?xml version="1.0" encoding="utf-8"?>
<!-- Generator: Adobe Illustrator 23.0.4, SVG Export Plug-In . SVG Version: 6.00 Build 0)  -->
<!DOCTYPE svg PUBLIC "-//W3C//DTD SVG 1.1//EN" "http://www.w3.org/Graphics/SVG/1.1/DTD/svg11.dtd" [
	<!ENTITY ns_extend "http://ns.adobe.com/Extensibility/1.0/">
	<!ENTITY ns_ai "http://ns.adobe.com/AdobeIllustrator/10.0/">
	<!ENTITY ns_graphs "http://ns.adobe.com/Graphs/1.0/">
	<!ENTITY ns_vars "http://ns.adobe.com/Variables/1.0/">
	<!ENTITY ns_imrep "http://ns.adobe.com/ImageReplacement/1.0/">
	<!ENTITY ns_sfw "http://ns.adobe.com/SaveForWeb/1.0/">
	<!ENTITY ns_custom "http://ns.adobe.com/GenericCustomNamespace/1.0/">
	<!ENTITY ns_adobe_xpath "http://ns.adobe.com/XPath/1.0/">
]>
<svg version="1.1" id="Слой_1" xmlns:x="&ns_extend;" xmlns:i="&ns_ai;" xmlns:graph="&ns_graphs;"
	 xmlns="http://www.w3.org/2000/svg" xmlns:xlink="http://www.w3.org/1999/xlink" x="0px" y="0px" viewBox="0 0 64.3 64"
	 style="enable-background:new 0 0 64.3 64;" xml:space="preserve">
<style type="text/css">
	.st0{fill:#2D2D2D;}
	.st1{fill-rule:evenodd;clip-rule:evenodd;fill:#2D2D2D;}
</style>
<metadata>
	<sfw  xmlns="&ns_sfw;">
		<slices></slices>
		<sliceSourceBounds  bottomLeftOrigin="true" height="56.8" width="57.9" x="-481.7" y="3.6"></sliceSourceBounds>
	</sfw>
</metadata>
<g>
	<path class="st0" d="M54.5,47.6c-3.2-0.1-5.6,0.2-7.6,1.1c-0.6,0.2-1.5,0.3-1.6,1c0.3,0.3,0.4,0.8,0.6,1.3c0.5,0.8,1.3,1.9,2.1,2.4
		c0.8,0.6,1.6,1.3,2.5,1.8c1.5,0.9,3.3,1.5,4.8,2.4c0.9,0.6,1.7,1.3,2.6,1.9c0.4,0.3,0.7,0.8,1.3,1c0,0,0-0.1,0-0.1
		c-0.3-0.4-0.4-0.9-0.6-1.3c-0.4-0.4-0.8-0.8-1.2-1.2c-1.1-1.5-2.6-2.8-4.1-3.9c-1.2-0.9-4-2.1-4.5-3.5c0,0-0.1-0.1-0.1-0.1
		c0.9-0.1,1.9-0.4,2.7-0.6c1.3-0.4,2.6-0.3,3.9-0.6c0.6-0.2,1.3-0.4,1.9-0.5c0-0.1,0-0.2,0-0.4c-0.7-0.7-1.2-1.7-2-2.3
		c-2-1.7-4.2-3.4-6.5-4.8c-1.3-0.8-2.8-1.3-4.1-2c-0.4-0.2-1.2-0.3-1.5-0.7c-0.7-0.9-1.1-2-1.6-3.1c-1.1-2.2-2.2-4.5-3.2-6.8
		c-0.7-1.6-1.1-3.1-2-4.5c-4.1-6.7-8.5-10.7-15.3-14.7c-1.4-0.8-3.2-1.2-5-1.6c-1-0.1-2-0.1-3-0.2c-0.6-0.3-1.2-1-1.8-1.3
		c-2.3-1.4-8-4.5-9.7-0.4C0.4,8.2,3,10.7,3.9,12c0.7,0.9,1.5,1.9,2,3c0.3,0.7,0.4,1.4,0.6,2.1c0.7,1.8,1.2,3.7,2.1,5.3
		C9,23.2,9.5,24,10,24.8c0.3,0.5,0.9,0.6,1,1.3c-0.6,0.8-0.6,2-0.9,3c-1.4,4.4-0.9,9.9,1.2,13.2c0.6,1,2.1,3.2,4.1,2.3
		c1.8-0.7,1.4-3,1.9-4.9c0.1-0.4,0-0.8,0.3-1.1c0,0,0,0.1,0,0.1c0.5,1.1,1.1,2.2,1.6,3.2c1.2,1.9,3.3,3.9,5.1,5.3
		c0.9,0.7,1.7,1.9,2.9,2.3c0,0,0-0.1,0-0.1c0,0-0.1,0-0.1,0c-0.2-0.4-0.6-0.5-0.9-0.8c-0.7-0.7-1.5-1.5-2.1-2.3
		c-1.6-2.2-3.1-4.7-4.4-7.2c-0.6-1.2-1.2-2.5-1.7-3.8c-0.2-0.5-0.2-1.2-0.6-1.4c-0.6,0.9-1.4,1.6-1.9,2.7c-0.7,1.7-0.8,3.8-1.1,5.9
		c-0.2,0.1-0.1,0-0.2,0.1c-1.3-0.3-1.7-1.6-2.2-2.7c-1.2-2.8-1.4-7.3-0.4-10.5c0.3-0.8,1.5-3.5,1-4.2c-0.2-0.8-1-1.2-1.4-1.8
		c-0.5-0.7-1.1-1.7-1.4-2.5c-1-2.2-1.4-4.6-2.4-6.8C7,13,6.1,12,5.5,11C4.7,10,3.9,9.2,3.3,8C3.1,7.5,2.8,6.8,3.1,6.4
		C3.2,6,3.4,5.9,3.7,5.8c0.5-0.4,2,0.1,2.5,0.4c1.4,0.6,2.6,1.2,3.9,2c0.6,0.4,1.2,1.1,1.9,1.3c0.3,0,0.5,0,0.8,0
		c1.3,0.3,2.7,0.1,3.9,0.4c2.1,0.6,4,1.6,5.7,2.7c5.2,3.3,9.4,7.9,12.3,13.5c0.5,0.9,0.7,1.7,1.1,2.7c0.8,1.9,1.9,3.9,2.7,5.7
		c0.8,1.9,1.6,3.7,2.8,5.3c0.6,0.8,3,1.3,4,1.7c0.8,0.3,2,0.6,2.7,1.1c1.4,0.8,2.7,1.8,3.9,2.7C52.4,45.8,54.4,46.7,54.5,47.6
		L54.5,47.6z"/>
	<path class="st1" d="M14.4,13.4c-0.4,0-1.1,0.1-1.6,0.2c0,0,0,0.1,0,0.1c0,0,0.1,0,0.1,0c0.5,0.5,0.9,1,1.3,1.6
		c0.4,0.6,0.6,1.3,0.9,1.9c0,0,0.1-0.1,0.1-0.1c0.6-0.4,1.2-1.1,0.8-2c-0.1-0.3-0.3-0.5-0.4-0.8C15.2,13.9,14.7,13.7,14.4,13.4
		L14.4,13.4z"/>
</g>
</svg>
