<?xml version="1.0" encoding="utf-8"?>
<!-- Generator: Adobe Illustrator 23.0.4, SVG Export Plug-In . SVG Version: 6.00 Build 0)  -->
<!DOCTYPE svg PUBLIC "-//W3C//DTD SVG 1.1//EN" "http://www.w3.org/Graphics/SVG/1.1/DTD/svg11.dtd" [
	<!ENTITY ns_extend "http://ns.adobe.com/Extensibility/1.0/">
	<!ENTITY ns_ai "http://ns.adobe.com/AdobeIllustrator/10.0/">
	<!ENTITY ns_graphs "http://ns.adobe.com/Graphs/1.0/">
	<!ENTITY ns_vars "http://ns.adobe.com/Variables/1.0/">
	<!ENTITY ns_imrep "http://ns.adobe.com/ImageReplacement/1.0/">
	<!ENTITY ns_sfw "http://ns.adobe.com/SaveForWeb/1.0/">
	<!ENTITY ns_custom "http://ns.adobe.com/GenericCustomNamespace/1.0/">
	<!ENTITY ns_adobe_xpath "http://ns.adobe.com/XPath/1.0/">
]>
<svg version="1.1" id="Слой_1" xmlns:x="&ns_extend;" xmlns:i="&ns_ai;" xmlns:graph="&ns_graphs;"
	 xmlns="http://www.w3.org/2000/svg" xmlns:xlink="http://www.w3.org/1999/xlink" x="0px" y="0px" viewBox="0 0 64.3 64"
	 style="enable-background:new 0 0 64.3 64;" xml:space="preserve">
<style type="text/css">
	.st0{fill:#2D2D2D;}
</style>
<metadata>
	<sfw  xmlns="&ns_sfw;">
		<slices></slices>
		<sliceSourceBounds  bottomLeftOrigin="true" height="42.5" width="64.3" x="-797.6" y="11.2"></sliceSourceBounds>
	</sfw>
</metadata>
<path class="st0" d="M54.8,26.3c-0.6-4-1.8-8.6-3.5-13.6c-0.6,1.5-1.4,2.8-2.3,4.1c-8.3-8.6-22.1-8.8-30.7-0.4
	c-1.4,1.3-2.5,2.8-3.5,4.4c3.3,0.2,6.4,1.5,8.9,3.7c-2.5-1.6-5.4-2.5-8.4-2.5C6.9,22.1,0,29,0,37.4s6.9,15.3,15.3,15.3h35.4
	c7.5,0,13.5-6,13.6-13.5C64.3,33.4,60.5,28.1,54.8,26.3z M21.8,48c-0.6,0.8-1.8,0.9-2.6,0.2c-0.8-0.6-0.9-1.8-0.2-2.6
	c0.6-0.8,1.8-0.9,2.6-0.3C22.3,46.1,22.4,47.2,21.8,48C21.8,48,21.8,48,21.8,48z M51.2,41.6c-5.4,7.1-16.8,4.7-24.1,5.1
	c0,0-1.3,0.1-2.6,0.3c0,0,0.5-0.2,1.1-0.4c5.1-1.8,7.6-2.1,10.7-3.7c5.9-3,11.7-9.6,12.9-16.4c-2.2,6.6-9,12.2-15.2,14.5
	c-4.2,1.6-11.9,3.1-11.9,3.1l-0.3-0.2c-5.2-2.5-5.4-13.8,4.1-17.5c4.2-1.6,8.1-0.7,12.6-1.8c4.8-1.1,10.3-4.7,12.6-9.4
	C53.6,22.6,56.7,34.3,51.2,41.6z"/>
</svg>
